<mxfile host="app.diagrams.net" agent="Mozilla/5.0 (Windows NT 10.0; Win64; x64) AppleWebKit/537.36 (KHTML, like Gecko) Chrome/118.0.0.0 Safari/537.36" version="28.0.7">
  <diagram name="第 1 页" id="UgM8FfxsNI3zfSPlbwk3">
    <mxGraphModel dx="973" dy="427" grid="1" gridSize="10" guides="1" tooltips="1" connect="1" arrows="1" fold="1" page="1" pageScale="1" pageWidth="827" pageHeight="1169" math="0" shadow="0">
      <root>
        <mxCell id="0" />
        <mxCell id="1" parent="0" />
        <mxCell id="G7YPm5RvyC9O0uatV-jY-1" value="" style="group" vertex="1" connectable="0" parent="1">
          <mxGeometry x="160" y="80" width="410" height="650" as="geometry" />
        </mxCell>
        <mxCell id="dd9rRILLbQaEppfjLX-1-29" value="&lt;b&gt;接入层-流量洪峰处理&lt;/b&gt;" style="text;strokeColor=none;align=center;fillColor=none;html=1;verticalAlign=middle;whiteSpace=wrap;rounded=0;" parent="G7YPm5RvyC9O0uatV-jY-1" vertex="1">
          <mxGeometry width="120" height="20" as="geometry" />
        </mxCell>
        <mxCell id="dd9rRILLbQaEppfjLX-1-31" value="" style="group" parent="G7YPm5RvyC9O0uatV-jY-1" vertex="1" connectable="0">
          <mxGeometry y="30" width="410" height="620" as="geometry" />
        </mxCell>
        <mxCell id="dd9rRILLbQaEppfjLX-1-13" style="edgeStyle=orthogonalEdgeStyle;rounded=0;orthogonalLoop=1;jettySize=auto;html=1;" parent="dd9rRILLbQaEppfjLX-1-31" source="dd9rRILLbQaEppfjLX-1-5" target="dd9rRILLbQaEppfjLX-1-6" edge="1">
          <mxGeometry relative="1" as="geometry" />
        </mxCell>
        <mxCell id="dd9rRILLbQaEppfjLX-1-14" style="edgeStyle=orthogonalEdgeStyle;rounded=0;orthogonalLoop=1;jettySize=auto;html=1;" parent="dd9rRILLbQaEppfjLX-1-31" edge="1">
          <mxGeometry relative="1" as="geometry">
            <mxPoint x="250" y="450" as="targetPoint" />
            <mxPoint x="250" y="400" as="sourcePoint" />
          </mxGeometry>
        </mxCell>
        <mxCell id="dd9rRILLbQaEppfjLX-1-6" value="Nginx集群" style="verticalLabelPosition=bottom;verticalAlign=top;html=1;shape=mxgraph.basic.layered_rect;dx=10;outlineConnect=0;whiteSpace=wrap;shadow=1;fillColor=#CCFFFF;" parent="dd9rRILLbQaEppfjLX-1-31" vertex="1">
          <mxGeometry x="200" y="320" width="100" height="60" as="geometry" />
        </mxCell>
        <mxCell id="dd9rRILLbQaEppfjLX-1-15" style="edgeStyle=orthogonalEdgeStyle;rounded=0;orthogonalLoop=1;jettySize=auto;html=1;exitX=0;exitY=0.5;exitDx=0;exitDy=0;entryX=0.319;entryY=0.018;entryDx=0;entryDy=0;entryPerimeter=0;" parent="dd9rRILLbQaEppfjLX-1-31" source="dd9rRILLbQaEppfjLX-1-7" edge="1">
          <mxGeometry relative="1" as="geometry">
            <mxPoint x="138.71000000000004" y="570.9" as="targetPoint" />
          </mxGeometry>
        </mxCell>
        <mxCell id="dd9rRILLbQaEppfjLX-1-7" value="API网关" style="shape=hexagon;perimeter=hexagonPerimeter2;whiteSpace=wrap;html=1;fixedSize=1;fillColor=#E5CCFF;shadow=1;" parent="dd9rRILLbQaEppfjLX-1-31" vertex="1">
          <mxGeometry x="200" y="452" width="100" height="65" as="geometry" />
        </mxCell>
        <mxCell id="dd9rRILLbQaEppfjLX-1-16" style="edgeStyle=orthogonalEdgeStyle;rounded=0;orthogonalLoop=1;jettySize=auto;html=1;exitX=1;exitY=0.5;exitDx=0;exitDy=0;entryX=0.5;entryY=0;entryDx=0;entryDy=0;" parent="dd9rRILLbQaEppfjLX-1-31" source="dd9rRILLbQaEppfjLX-1-7" target="dd9rRILLbQaEppfjLX-1-28" edge="1">
          <mxGeometry relative="1" as="geometry">
            <mxPoint x="357.24" y="570.15" as="targetPoint" />
          </mxGeometry>
        </mxCell>
        <mxCell id="dd9rRILLbQaEppfjLX-1-25" value="QPS&amp;gt;50万" style="text;strokeColor=none;align=center;fillColor=none;html=1;verticalAlign=middle;whiteSpace=wrap;rounded=0;" parent="dd9rRILLbQaEppfjLX-1-31" vertex="1">
          <mxGeometry x="140" y="465" width="60" height="20" as="geometry" />
        </mxCell>
        <mxCell id="dd9rRILLbQaEppfjLX-1-26" value="异常流量" style="text;strokeColor=none;align=center;fillColor=none;html=1;verticalAlign=middle;whiteSpace=wrap;rounded=0;" parent="dd9rRILLbQaEppfjLX-1-31" vertex="1">
          <mxGeometry x="300" y="465" width="55" height="18" as="geometry" />
        </mxCell>
        <mxCell id="dd9rRILLbQaEppfjLX-1-27" value="自动扩容" style="rounded=1;whiteSpace=wrap;html=1;fillColor=#CCFFE6;shadow=1;" parent="dd9rRILLbQaEppfjLX-1-31" vertex="1">
          <mxGeometry x="94" y="570" width="90" height="50" as="geometry" />
        </mxCell>
        <mxCell id="dd9rRILLbQaEppfjLX-1-28" value="熔断降级" style="rounded=1;whiteSpace=wrap;html=1;fillColor=#FFCCFF;shadow=1;" parent="dd9rRILLbQaEppfjLX-1-31" vertex="1">
          <mxGeometry x="320" y="570" width="90" height="50" as="geometry" />
        </mxCell>
        <mxCell id="dd9rRILLbQaEppfjLX-1-30" value="" style="group" parent="dd9rRILLbQaEppfjLX-1-31" vertex="1" connectable="0">
          <mxGeometry width="295" height="270" as="geometry" />
        </mxCell>
        <mxCell id="dd9rRILLbQaEppfjLX-1-1" value="" style="shape=actor;whiteSpace=wrap;html=1;fillColor=#FFCCE6;shadow=1;" parent="dd9rRILLbQaEppfjLX-1-30" vertex="1">
          <mxGeometry x="124" width="40" height="60" as="geometry" />
        </mxCell>
        <mxCell id="dd9rRILLbQaEppfjLX-1-12" style="edgeStyle=orthogonalEdgeStyle;rounded=0;orthogonalLoop=1;jettySize=auto;html=1;exitX=1;exitY=0.5;exitDx=0;exitDy=0;entryX=0.5;entryY=0;entryDx=0;entryDy=0;" parent="dd9rRILLbQaEppfjLX-1-30" source="dd9rRILLbQaEppfjLX-1-2" target="dd9rRILLbQaEppfjLX-1-5" edge="1">
          <mxGeometry relative="1" as="geometry" />
        </mxCell>
        <mxCell id="dd9rRILLbQaEppfjLX-1-2" value="CDN缓存?" style="rhombus;whiteSpace=wrap;html=1;fillColor=#E5CCFF;shadow=1;" parent="dd9rRILLbQaEppfjLX-1-30" vertex="1">
          <mxGeometry x="104" y="110" width="80" height="80" as="geometry" />
        </mxCell>
        <mxCell id="dd9rRILLbQaEppfjLX-1-10" style="edgeStyle=orthogonalEdgeStyle;rounded=0;orthogonalLoop=1;jettySize=auto;html=1;entryX=0.5;entryY=0;entryDx=0;entryDy=0;" parent="dd9rRILLbQaEppfjLX-1-30" source="dd9rRILLbQaEppfjLX-1-3" target="dd9rRILLbQaEppfjLX-1-2" edge="1">
          <mxGeometry relative="1" as="geometry" />
        </mxCell>
        <mxCell id="dd9rRILLbQaEppfjLX-1-3" value="用户请求" style="text;strokeColor=none;align=center;fillColor=none;html=1;verticalAlign=middle;whiteSpace=wrap;rounded=0;" parent="dd9rRILLbQaEppfjLX-1-30" vertex="1">
          <mxGeometry x="116" y="60" width="56" height="20" as="geometry" />
        </mxCell>
        <mxCell id="dd9rRILLbQaEppfjLX-1-4" value="返回静态资源" style="rounded=1;whiteSpace=wrap;html=1;fillColor=#CCFFCC;shadow=1;" parent="dd9rRILLbQaEppfjLX-1-30" vertex="1">
          <mxGeometry y="220" width="90" height="50" as="geometry" />
        </mxCell>
        <mxCell id="dd9rRILLbQaEppfjLX-1-5" value="LVS-DR模式" style="rounded=1;whiteSpace=wrap;html=1;fillColor=#CCFFFF;shadow=1;" parent="dd9rRILLbQaEppfjLX-1-30" vertex="1">
          <mxGeometry x="205" y="220" width="90" height="50" as="geometry" />
        </mxCell>
        <mxCell id="dd9rRILLbQaEppfjLX-1-11" style="edgeStyle=orthogonalEdgeStyle;rounded=0;orthogonalLoop=1;jettySize=auto;html=1;exitX=0;exitY=0.5;exitDx=0;exitDy=0;entryX=0.444;entryY=0;entryDx=0;entryDy=0;entryPerimeter=0;" parent="dd9rRILLbQaEppfjLX-1-30" source="dd9rRILLbQaEppfjLX-1-2" target="dd9rRILLbQaEppfjLX-1-4" edge="1">
          <mxGeometry relative="1" as="geometry" />
        </mxCell>
        <mxCell id="dd9rRILLbQaEppfjLX-1-23" value="是" style="text;strokeColor=none;align=center;fillColor=none;html=1;verticalAlign=middle;whiteSpace=wrap;rounded=0;" parent="dd9rRILLbQaEppfjLX-1-30" vertex="1">
          <mxGeometry x="60" y="130" width="20" height="20" as="geometry" />
        </mxCell>
        <mxCell id="dd9rRILLbQaEppfjLX-1-24" value="否" style="text;strokeColor=none;align=center;fillColor=none;html=1;verticalAlign=middle;whiteSpace=wrap;rounded=0;" parent="dd9rRILLbQaEppfjLX-1-30" vertex="1">
          <mxGeometry x="210" y="130" width="25" height="20" as="geometry" />
        </mxCell>
        <mxCell id="G7YPm5RvyC9O0uatV-jY-16" value="" style="group" vertex="1" connectable="0" parent="1">
          <mxGeometry x="70" y="870" width="720" height="80" as="geometry" />
        </mxCell>
        <mxCell id="G7YPm5RvyC9O0uatV-jY-9" style="edgeStyle=orthogonalEdgeStyle;rounded=0;orthogonalLoop=1;jettySize=auto;html=1;entryX=0;entryY=0.5;entryDx=0;entryDy=0;" edge="1" parent="G7YPm5RvyC9O0uatV-jY-16" source="G7YPm5RvyC9O0uatV-jY-2" target="G7YPm5RvyC9O0uatV-jY-4">
          <mxGeometry relative="1" as="geometry" />
        </mxCell>
        <mxCell id="G7YPm5RvyC9O0uatV-jY-2" value="智能DNS" style="strokeWidth=2;html=1;shape=mxgraph.flowchart.delay;whiteSpace=wrap;fillColor=#CCFFFF;shadow=1;direction=west;" vertex="1" parent="G7YPm5RvyC9O0uatV-jY-16">
          <mxGeometry y="10" width="100" height="60" as="geometry" />
        </mxCell>
        <mxCell id="G7YPm5RvyC9O0uatV-jY-4" value="Anycast IP" style="whiteSpace=wrap;html=1;aspect=fixed;fillColor=#CCE5FF;shadow=1;" vertex="1" parent="G7YPm5RvyC9O0uatV-jY-16">
          <mxGeometry x="160" width="80" height="80" as="geometry" />
        </mxCell>
        <mxCell id="G7YPm5RvyC9O0uatV-jY-6" value="DDoS防护" style="shape=dataStorage;whiteSpace=wrap;html=1;fixedSize=1;fillColor=#CCCCFF;shadow=1;" vertex="1" parent="G7YPm5RvyC9O0uatV-jY-16">
          <mxGeometry x="460" y="5" width="110" height="70" as="geometry" />
        </mxCell>
        <mxCell id="G7YPm5RvyC9O0uatV-jY-7" value="SDN网络" style="ellipse;shape=cloud;whiteSpace=wrap;html=1;fillColor=#FFFFFF;" vertex="1" parent="G7YPm5RvyC9O0uatV-jY-16">
          <mxGeometry x="600" width="120" height="80" as="geometry" />
        </mxCell>
        <mxCell id="G7YPm5RvyC9O0uatV-jY-12" style="edgeStyle=orthogonalEdgeStyle;rounded=0;orthogonalLoop=1;jettySize=auto;html=1;entryX=0;entryY=0.5;entryDx=0;entryDy=0;" edge="1" parent="G7YPm5RvyC9O0uatV-jY-16" source="G7YPm5RvyC9O0uatV-jY-8" target="G7YPm5RvyC9O0uatV-jY-6">
          <mxGeometry relative="1" as="geometry" />
        </mxCell>
        <mxCell id="G7YPm5RvyC9O0uatV-jY-8" value="多机房&lt;br&gt;BGP路由" style="shape=cube;whiteSpace=wrap;html=1;boundedLbl=1;backgroundOutline=1;darkOpacity=0.05;darkOpacity2=0.1;fillColor=#E6E6E6;shadow=1;" vertex="1" parent="G7YPm5RvyC9O0uatV-jY-16">
          <mxGeometry x="300" width="110" height="80" as="geometry" />
        </mxCell>
        <mxCell id="G7YPm5RvyC9O0uatV-jY-11" style="edgeStyle=orthogonalEdgeStyle;rounded=0;orthogonalLoop=1;jettySize=auto;html=1;entryX=0;entryY=0.5;entryDx=0;entryDy=0;entryPerimeter=0;" edge="1" parent="G7YPm5RvyC9O0uatV-jY-16" source="G7YPm5RvyC9O0uatV-jY-4" target="G7YPm5RvyC9O0uatV-jY-8">
          <mxGeometry relative="1" as="geometry" />
        </mxCell>
        <mxCell id="G7YPm5RvyC9O0uatV-jY-13" style="edgeStyle=orthogonalEdgeStyle;rounded=0;orthogonalLoop=1;jettySize=auto;html=1;entryX=0.063;entryY=0.496;entryDx=0;entryDy=0;entryPerimeter=0;" edge="1" parent="G7YPm5RvyC9O0uatV-jY-16" source="G7YPm5RvyC9O0uatV-jY-6" target="G7YPm5RvyC9O0uatV-jY-7">
          <mxGeometry relative="1" as="geometry" />
        </mxCell>
      </root>
    </mxGraphModel>
  </diagram>
</mxfile>
